<svg width="200" height="120" xmlns="http://www.w3.org/2000/svg">
 <g>
  <title>Layer 2</title>
  <path id="svg_1" fill="white" d="m26.86043,4.7323l-1.20402,0.15313l-4.94988,0l-0.26756,1.07183l-0.80269,4.59351l-0.53512,0.9187l-7.2247,20.67083l0.66891,1.68429l-2.40806,1.99052l-7.22416,20.05837l-1.07025,0.7656l0.26756,9.64639l3.21074,7.80899l4.81611,13.01497l4.01398,9.49329l1.4716,0l-0.40135,2.60299l4.68232,13.3212l0.13379,5.05287l12.17403,0.15313l0.26756,-1.68429l1.60536,-4.89974l7.22416,-19.599l3.07695,-7.34963l0.13379,-2.44989l1.07025,-1.53116l6.55525,-15.15862l0.40135,-8.42146l-4.54855,-11.33068l-3.61207,-9.18705l-1.33781,0l-0.66891,-4.13418l-6.82282,-19.13967l-2.67561,-8.42146l-6.02013,0.30623l-0.00006,0l0.00001,-0.00001l0.00002,0l0.00001,0zm0.26756,93.40157l-5.88636,-17.60848l-2.67561,-6.2778l-2.67561,-2.14366l1.33781,-1.83742l-1.20402,-4.44041l-1.73915,-5.05287l-0.13379,-1.83742l4.41476,-13.1681l-0.93646,-2.44989l1.87292,-0.61246l7.35793,-22.20202l0.80269,2.90922l3.07695,9.34015l2.40806,1.68429l-1.20402,1.83742l5.21745,15.46486l1.60536,5.20597l1.07025,3.82795l-6.55525,18.37408l0.13379,2.75612l0.13379,0l-1.60536,1.83742l-4.28097,16.07732l-0.53512,-1.68429l-0.00004,0.00003l0,-0.00001l0.00002,0l-0.00002,0zm60.46884,4.89974l4.68232,-10.87131l13.77939,-24.19255l2.40806,-4.59351l-0.13379,-11.17758l-2.40806,-3.52168l0.13379,0.30623l-10.16732,-15.46486l-3.4783,-7.0434l-4.68232,-5.35911l-1.4716,-5.05287l-8.29441,-13.01497l-7.09037,2.44989l-5.75257,1.99052l0.13379,5.66534l0.40135,7.96209l1.33781,1.99052l-1.33781,2.90922l0.13379,40.11673l0.80269,5.97157l-0.80269,34.29826l0,-0.15313l-0.26756,10.25885l8.69574,1.37806l4.41476,1.37806l8.96331,-16.23042l0,0.00003l0,0.00002l0.00001,0l-0.00001,0zm-9.89977,-57.26588l-0.40135,-22.20202l0.80269,1.07183l13.24429,24.34565l2.67561,2.44989l0.53512,3.67482l2.40806,4.13418l-2.40806,4.44041l-4.41476,8.42146l-5.61878,12.4025l1.07025,1.37806l-2.40806,1.37806l-5.88636,10.87131l-0.13379,0.30623l0.13379,-8.26833l0.53512,-30.31722l-2.14049,-7.1965l2.00671,-6.89027l0.00002,-0.00006l-0.00001,0zm44.48206,5.20597l-0.40135,8.42146l-0.40135,4.74664l0,28.63292l0,5.51224l1.60536,2.60299l-1.60536,3.06235l-1.87292,13.62743l6.15391,0.15313l2.8094,0.15313l5.88636,-2.14366l0.13379,-5.66534l-0.26756,-2.90922l-0.26756,-2.29676l0,-42.41349l-1.4716,-1.07183l1.20402,-3.21545l-0.26756,-3.82795l-0.53512,-5.97157l0.40135,-7.80899l0.40135,-20.05837l0.66891,-3.82795l0.66891,-11.17758l-8.69574,-0.61246l-6.28768,0.45936l0.66891,7.65586l1.20402,0.7656l-1.07025,2.75612l0.40135,30.62345l0.93646,3.82795l-0.00004,-0.00003l0.00001,0.00002l-0.00001,0l-0.00001,0zm76.27724,53.1317l0,-4.89974l-0.93646,-33.5327l-1.4716,-5.05287l1.07025,-6.43093l1.33781,-37.66685l0.26756,-10.41198l-5.48501,-1.07183l-7.75928,0.15313l0,12.24937l1.33781,2.14366l-1.33781,4.74664l0,13.1681l-4.41476,-8.26833l-1.07025,-0.61246l-3.34452,-6.1247l-12.04026,-18.98654l-10.56867,3.36858l0,7.96209l0.53512,15.92419l0.53512,8.72769l-0.53512,31.84841l1.20402,3.06235l-1.07025,4.44041l-0.80269,21.74266l0,2.60299l0.40135,1.37806l-0.93646,12.24937l5.75257,1.22493l7.89306,-0.30623l0.26756,-9.79952l-0.40135,-2.14366l0.13379,-15.92419l-1.20402,-5.81847l0.66891,-5.51224l0.26756,-34.91076l-1.60536,-1.99052l-0.13379,-0.30623l1.87292,-5.51224l0,-8.26833l3.4783,5.51224l5.48501,8.72769l3.87964,5.35911l1.87292,3.36858l1.87292,2.29676l2.14049,4.13418l0.13379,15.92419l0.40135,2.90922l-0.40135,0.7656l-0.13379,14.69926l0.13379,14.54613l-0.13379,11.94314l4.54855,0.30623l7.35793,-0.15313l1.73915,-5.20597l-0.80269,-8.57456l0.00004,0.00003l-0.00001,-0.00001l-0.00001,0l0.00001,0z" stroke="null"/>
 </g>

</svg>